<svg width="150" height="150" xmlns="http://www.w3.org/2000/svg" xml:space="preserve" version="1.1">

 <g>
  <title>Layer 1</title>
  <path id="svg_1" d="m118,33l-86,0c-1.1,0 -2,0.9 -2,2l0,66c0,1.1 0.9,2 2,2l34.3,0l-2.9,10l-5.4,0c-1.1,0 -2,0.9 -2,2s0.9,2 2,2l7,0c0,0 0,0 0,0c0,0 0,0 0,0l20,0c0,0 0,0 0,0c0,0 0,0 0,0l7,0c1.1,0 2,-0.9 2,-2s-0.9,-2 -2,-2l-5.5,0l-2.9,-10l34.4,0c1.1,0 2,-0.9 2,-2l0,-66c0,-1.1 -0.9,-2 -2,-2zm-2,4l0,50l-82,0l0,-50l82,0zm-33.7,76l-14.60001,0l2.9,-10l9,0l2.7,10zm-48.3,-14l0,-8l82,0l0,8l-82,0zm42.4,-5.4c0.39999,0.4 0.6,0.9 0.6,1.4c0,0.3 0,0.5 -0.2,0.8c-0.1,0.2 -0.2,0.5 -0.39999,0.6c-0.2,0.2 -0.4,0.3 -0.60001,0.4c-0.3,0.2 -0.49999,0.2 -0.8,0.2s-0.5,0 -0.8,-0.2c-0.2,-0.10001 -0.5,-0.2 -0.6,-0.4c-0.2,-0.2 -0.3,-0.4 -0.4,-0.6c-0.2,-0.3 -0.2,-0.5 -0.2,-0.8c0,-0.5 0.2,-1 0.6,-1.4c0.7,-0.8 2.1,-0.8 2.8,0z"/>
 </g>
</svg>